<svg width="14" height="16" viewBox="0 0 14 16" fill="none" xmlns="http://www.w3.org/2000/svg">
<mask id="path-1-inside-1_634_60" fill="white">
<path fill-rule="evenodd" clip-rule="evenodd" d="M5.20007 2.60005C3.7089 2.60005 2.50007 3.80888 2.50007 5.30005V8.90005C2.50007 11.3853 4.51479 13.4 7.00007 13.4C9.48535 13.4 11.5001 11.3853 11.5001 8.90005V5.30005C11.5001 4.80299 11.903 4.40005 12.4001 4.40005C12.8971 4.40005 13.3001 4.80299 13.3001 5.30005V8.90005C13.3001 12.3794 10.4795 15.2 7.00007 15.2C3.52068 15.2 0.700073 12.3794 0.700073 8.90005V5.30005C0.700073 2.81477 2.71479 0.800049 5.20007 0.800049C7.68535 0.800049 9.70007 2.81477 9.70007 5.30005V8.90005C9.70007 10.3912 8.49124 11.6 7.00007 11.6C5.5089 11.6 4.30007 10.3912 4.30007 8.90005V5.30005C4.30007 4.80299 4.70302 4.40005 5.20007 4.40005C5.69713 4.40005 6.10007 4.80299 6.10007 5.30005V8.90005C6.10007 9.3971 6.50302 9.80005 7.00007 9.80005C7.49713 9.80005 7.90007 9.3971 7.90007 8.90005V5.30005C7.90007 3.80888 6.69124 2.60005 5.20007 2.60005Z"/>
</mask>
<path fill-rule="evenodd" clip-rule="evenodd" d="M5.20007 2.60005C3.7089 2.60005 2.50007 3.80888 2.50007 5.30005V8.90005C2.50007 11.3853 4.51479 13.4 7.00007 13.4C9.48535 13.4 11.5001 11.3853 11.5001 8.90005V5.30005C11.5001 4.80299 11.903 4.40005 12.4001 4.40005C12.8971 4.40005 13.3001 4.80299 13.3001 5.30005V8.90005C13.3001 12.3794 10.4795 15.2 7.00007 15.2C3.52068 15.2 0.700073 12.3794 0.700073 8.90005V5.30005C0.700073 2.81477 2.71479 0.800049 5.20007 0.800049C7.68535 0.800049 9.70007 2.81477 9.70007 5.30005V8.90005C9.70007 10.3912 8.49124 11.6 7.00007 11.6C5.5089 11.6 4.30007 10.3912 4.30007 8.90005V5.30005C4.30007 4.80299 4.70302 4.40005 5.20007 4.40005C5.69713 4.40005 6.10007 4.80299 6.10007 5.30005V8.90005C6.10007 9.3971 6.50302 9.80005 7.00007 9.80005C7.49713 9.80005 7.90007 9.3971 7.90007 8.90005V5.30005C7.90007 3.80888 6.69124 2.60005 5.20007 2.60005Z" fill="#111827"/>
<path d="M5.20007 0.600049C2.60434 0.600049 0.500073 2.70431 0.500073 5.30005H4.50007C4.50007 4.91345 4.81347 4.60005 5.20007 4.60005V0.600049ZM0.500073 5.30005V8.90005H4.50007V5.30005H0.500073ZM0.500073 8.90005C0.500073 12.4899 3.41022 15.4 7.00007 15.4V11.4C5.61936 11.4 4.50007 10.2808 4.50007 8.90005H0.500073ZM7.00007 15.4C10.5899 15.4 13.5001 12.4899 13.5001 8.90005H9.50007C9.50007 10.2808 8.38078 11.4 7.00007 11.4V15.4ZM13.5001 8.90005V5.30005H9.50007V8.90005H13.5001ZM13.5001 5.30005C13.5001 5.90756 13.0076 6.40005 12.4001 6.40005V2.40005C10.7984 2.40005 9.50007 3.69842 9.50007 5.30005H13.5001ZM12.4001 6.40005C11.7926 6.40005 11.3001 5.90756 11.3001 5.30005H15.3001C15.3001 3.69842 14.0017 2.40005 12.4001 2.40005V6.40005ZM11.3001 5.30005V8.90005H15.3001V5.30005H11.3001ZM11.3001 8.90005C11.3001 11.2749 9.3749 13.2 7.00007 13.2V17.2C11.584 17.2 15.3001 13.484 15.3001 8.90005H11.3001ZM7.00007 13.2C4.62525 13.2 2.70007 11.2749 2.70007 8.90005H-1.29993C-1.29993 13.484 2.41611 17.2 7.00007 17.2V13.2ZM2.70007 8.90005V5.30005H-1.29993V8.90005H2.70007ZM2.70007 5.30005C2.70007 3.91934 3.81936 2.80005 5.20007 2.80005V-1.19995C1.61022 -1.19995 -1.29993 1.7102 -1.29993 5.30005H2.70007ZM5.20007 2.80005C6.58079 2.80005 7.70007 3.91934 7.70007 5.30005H11.7001C11.7001 1.7102 8.78992 -1.19995 5.20007 -1.19995V2.80005ZM7.70007 5.30005V8.90005H11.7001V5.30005H7.70007ZM7.70007 8.90005C7.70007 9.28665 7.38667 9.60005 7.00007 9.60005V13.6C9.59581 13.6 11.7001 11.4958 11.7001 8.90005H7.70007ZM7.00007 9.60005C6.61347 9.60005 6.30007 9.28665 6.30007 8.90005H2.30007C2.30007 11.4958 4.40434 13.6 7.00007 13.6V9.60005ZM6.30007 8.90005V5.30005H2.30007V8.90005H6.30007ZM6.30007 5.30005C6.30007 5.90756 5.80759 6.40005 5.20007 6.40005V2.40005C3.59845 2.40005 2.30007 3.69842 2.30007 5.30005H6.30007ZM5.20007 6.40005C4.59256 6.40005 4.10007 5.90756 4.10007 5.30005H8.10007C8.10007 3.69842 6.8017 2.40005 5.20007 2.40005V6.40005ZM4.10007 5.30005V8.90005H8.10007V5.30005H4.10007ZM4.10007 8.90005C4.10007 10.5017 5.39845 11.8 7.00007 11.8V7.80005C7.60759 7.80005 8.10007 8.29254 8.10007 8.90005H4.10007ZM7.00007 11.8C8.6017 11.8 9.90007 10.5017 9.90007 8.90005H5.90007C5.90007 8.29254 6.39256 7.80005 7.00007 7.80005V11.8ZM9.90007 8.90005V5.30005H5.90007V8.90005H9.90007ZM9.90007 5.30005C9.90007 2.70431 7.79581 0.600049 5.20007 0.600049V4.60005C5.58667 4.60005 5.90007 4.91345 5.90007 5.30005H9.90007Z" fill="#98A2B3" mask="url(#path-1-inside-1_634_60)"/>
</svg>
